<?xml version="1.0" encoding="utf-8"?>
<!-- Generator: Adobe Illustrator 24.0.1, SVG Export Plug-In . SVG Version: 6.00 Build 0)  -->
<svg version="1.1" id="Capa_1" xmlns="http://www.w3.org/2000/svg" xmlns:xlink="http://www.w3.org/1999/xlink" x="0px" y="0px"
	 viewBox="0 0 396 512" style="enable-background:new 0 0 396 512;" xml:space="preserve">
<g>
	<g>
		<path d="M377.3,128H270.7c-5.9,0-10.7-4.8-10.7-10.7V10.7C260,4.8,255.2,0,249.3,0H36C18.4,0,4,14.4,4,32v448
			c0,17.6,14.4,32,32,32h320c17.6,0,32-14.4,32-32V138.7C388,132.8,383.2,128,377.3,128z M366.7,480c0,5.9-4.8,10.7-10.7,10.7H36
			c-5.9,0-10.7-4.8-10.7-10.7V32c0-5.9,4.8-10.7,10.7-10.7h202.7v96c0,17.6,14.4,32,32,32h96V480z"/>
	</g>
</g>
<g>
	<g>
		<path d="M384.9,131.1l-128-128c-4.2-4.2-10.9-4.2-15.1,0s-4.2,10.9,0,15.1l128,128c2.1,2.1,4.8,3.1,7.6,3.1s5.5-1,7.5-3.1
			C389,142.1,389,135.3,384.9,131.1z"/>
	</g>
</g>
<g>
	<g>
		<path d="M292,192H100c-5.9,0-10.7,4.8-10.7,10.7s4.8,10.7,10.7,10.7h192c5.9,0,10.7-4.8,10.7-10.7S297.9,192,292,192z"/>
	</g>
</g>
<g>
	<g>
		<path d="M292,277.3H100c-5.9,0-10.7,4.8-10.7,10.7s4.8,10.7,10.7,10.7h192c5.9,0,10.7-4.8,10.7-10.7S297.9,277.3,292,277.3z"/>
	</g>
</g>
<g>
	<g>
		<path d="M292,362.7H100c-5.9,0-10.7,4.8-10.7,10.7S94.1,384,100,384h192c5.9,0,10.7-4.8,10.7-10.7
			C302.7,367.4,297.9,362.7,292,362.7z"/>
	</g>
</g>
</svg>
