<?xml version="1.0" encoding="utf-8"?>
<!-- Generator: Adobe Illustrator 24.0.1, SVG Export Plug-In . SVG Version: 6.00 Build 0)  -->
<svg version="1.1" id="Capa_1" xmlns="http://www.w3.org/2000/svg" xmlns:xlink="http://www.w3.org/1999/xlink" x="0px" y="0px"
	 viewBox="0 0 512 512" style="enable-background:new 0 0 512 512;" xml:space="preserve">
<style type="text/css">
	.st0{fill:#123868;}
</style>
<g>
	<g>
		<path class="st0" d="M0,75.5c0,39.4,67.9,60,135,60s135-20.6,135-60C270-3.2,0-3.2,0,75.5z"/>
	</g>
</g>
<g>
	<g>
		<path class="st0" d="M135,165.5c-48.5,0-135-14.2-135-60v30c0,39.3,67.8,60,135,60s135-20.7,135-60v-30
			C270,151.3,184,165.5,135,165.5z"/>
	</g>
</g>
<g>
	<g>
		<path class="st0" d="M135,285.5c-67.2,0-135-20.7-135-60v30c0,39.3,67.8,60,135,60s135-20.7,135-60v-30
			C270,264.8,202.2,285.5,135,285.5z"/>
	</g>
</g>
<g>
	<g>
		<path class="st0" d="M135,345.5c-67.2,0-135-20.7-135-60v30c0,39.3,67.8,60,135,60s135-20.7,135-60v-30
			C270,324.8,202.2,345.5,135,345.5z"/>
	</g>
</g>
<g>
	<g>
		<path class="st0" d="M135,405.5c-67.2,0-135-20.7-135-60v30c0,39.3,67.8,60,135,60s135-20.7,135-60v-30
			C270,384.8,202.2,405.5,135,405.5z"/>
	</g>
</g>
<g>
	<g>
		<path class="st0" d="M135,465.5c-67.2,0-135-20.7-135-60v30c0,39.3,67.8,60,135,60s135-20.7,135-60v-30
			C270,444.8,202.2,465.5,135,465.5z"/>
	</g>
</g>
<g>
	<g>
		<path class="st0" d="M135,225.5c-67.2,0-135-20.7-135-60v30c0,45.8,86.5,60,135,60c58.2,0,116.7-15.6,131.4-45
			c2.4-4.5,3.6-9.6,3.6-15v-30C270,204.8,202.2,225.5,135,225.5z"/>
	</g>
</g>
<g>
	<g>
		<path class="st0" d="M375,465.5c-27.6,0-55.1-3.7-78.1-10.5c-3,9.3-8.1,17.7-15,25.1c25.4,10.2,59.3,15.5,93.1,15.5
			c67.2,0,137-20.7,137-60v-30C512,444.8,442.2,465.5,375,465.5z"/>
	</g>
</g>
<g>
	<g>
		<path class="st0" d="M375,345.5c-26.4,0-52.6-3.4-75-9.6c0,16.9,0,13.2,0,30.1c22.4,6.2,48.7,9.5,75,9.5c67.2,0,137-20.7,137-60
			v-30C512,331.3,423.5,345.5,375,345.5z"/>
	</g>
</g>
<g>
	<g>
		<path class="st0" d="M375,405.5c-26.5,0-52.6-3.6-75-9.9c0,11.1,0,4.4,0,30.2c22.4,6.3,48.6,9.7,75,9.7c49,0,137-14.3,137-60v-30
			C512,384.8,442.2,405.5,375,405.5z"/>
	</g>
</g>
<g>
	<g>
		<path class="st0" d="M300,205.8v99.8c22.4,6.4,48.5,9.9,75,9.9c67.1,0,137-20.6,137-60C512,200.7,379.4,184.2,300,205.8z"/>
	</g>
</g>
</svg>
