<?xml version="1.0" encoding="utf-8"?>
<!-- Generator: Adobe Illustrator 24.0.1, SVG Export Plug-In . SVG Version: 6.00 Build 0)  -->
<svg version="1.1" id="Capa_1" xmlns="http://www.w3.org/2000/svg" xmlns:xlink="http://www.w3.org/1999/xlink" x="0px" y="0px"
	 viewBox="0 0 401.3 401.3" style="enable-background:new 0 0 401.3 401.3;" xml:space="preserve">
<style type="text/css">
	.st0{fill:#123868;}
</style>
<g>
	<path class="st0" d="M374.9,79.6h-15.1V52.7c0-29.1-23.6-52.7-52.7-52.7H94.2C65.1,0,41.5,23.6,41.5,52.7v26.8H26.4
		c-6.1,0-11,4.9-11,11v60.8c0,6.1,4.9,11,11,11h15.1v131.1c-5.9,5.3-9.6,12.9-9.6,21.4v20.3c0,15.9,12.9,28.8,28.8,28.8h3.6v28.9
		c0,4.7,3.8,8.5,8.5,8.5h38.9c4.7,0,8.5-3.8,8.5-8.5v-28.9h161.1v28.9c0,4.7,3.8,8.5,8.5,8.5h38.9c4.7,0,8.5-3.8,8.5-8.5v-28.9h3.6
		c15.9,0,28.8-12.9,28.8-28.8v-20.3c0-8.5-3.7-16.2-9.6-21.4V162.3h15.1c6.1,0,11-4.9,11-11V90.5C385.9,84.5,380.9,79.6,374.9,79.6z
		 M327.2,83.9v129.7H215V83.9H327.2z M144.7,27.5h111.8c7.8,0,14.1,6.3,14.1,14.1c0,7.8-6.3,14.1-14.1,14.1H144.7
		c-7.8,0-14.1-6.3-14.1-14.1C130.7,33.8,137,27.5,144.7,27.5z M74.1,83.9h112.2v129.7H74.1V83.9z M124.3,271.5
		c0,7.6-6.2,13.9-13.9,13.9H87.6c-7.6,0-13.8-6.2-13.8-13.9V256c0-7.6,6.2-13.9,13.8-13.9h22.9c7.6,0,13.9,6.2,13.9,13.9V271.5z
		 M277,271.5V256c0-7.6,6.2-13.9,13.9-13.9h22.9c7.6,0,13.8,6.2,13.8,13.9v15.4c0,7.6-6.2,13.9-13.8,13.9h-22.9
		C283.2,285.3,277,279.1,277,271.5z"/>
</g>
</svg>
