<?xml version="1.0" encoding="utf-8"?>
<!-- Generator: Adobe Illustrator 24.0.1, SVG Export Plug-In . SVG Version: 6.00 Build 0)  -->
<svg version="1.1" id="Capa_1" xmlns="http://www.w3.org/2000/svg" xmlns:xlink="http://www.w3.org/1999/xlink" x="0px" y="0px"
	 viewBox="0 0 512 512" style="enable-background:new 0 0 512 512;" xml:space="preserve">
<style type="text/css">
	.st0{fill:#123868;}
</style>
<g>
	<path class="st0" d="M436.3,87.1l-42.4-42.4c-5.9-5.9-15.4-5.9-21.2,0l-14.5,14.5c-17.7-11-36.9-18.9-57.2-23.7V15
		c0-8.3-6.7-15-15-15h-60c-8.3,0-15,6.7-15,15v20.4c-20.3,4.8-39.5,12.7-57.2,23.7l-14.5-14.5c-5.9-5.9-15.4-5.9-21.2,0L75.7,87.1
		c-5.9,5.9-5.9,15.4,0,21.2l14.5,14.5c-11,17.7-18.9,36.9-23.7,57.2H46c-8.3,0-15,6.7-15,15v60c0,8.3,6.7,15,15,15h20.4
		c4.4,18.5,11.4,38.1,20.9,54.5c2.7,4.6,7.6,7.5,13,7.5h48c-2-2.7-4-5.5-6-7.8C119.6,298,106,259.6,106,225c0-82.7,67.3-150,150-150
		s150,67.3,150,150c0,34.2-13.4,72.4-35.8,98.6c-2.1,2.5-4.3,5.4-6.4,8.4h47.8c5.3,0,10.3-2.8,13-7.5c9.5-16.5,16.6-36.1,20.9-54.5
		H466c8.3,0,15-6.7,15-15v-60c0-8.3-6.7-15-15-15h-20.4c-4.8-20.3-12.7-39.5-23.7-57.2l14.5-14.5C442.2,102.5,442.2,93,436.3,87.1
		L436.3,87.1z"/>
	<path class="st0" d="M226,482c0,16.5,13.5,30,30,30s30-13.5,30-30v-15h-60V482z"/>
	<path class="st0" d="M347.4,304.1C365,283.5,376,251.9,376,225c0-66.2-53.8-120-120-120s-120,53.8-120,120
		c0,27.6,10.8,58.6,29,79.6c11.3,13.1,23.9,32.9,28.7,57.4h44l-26.4-134.1c-1.6-8.1,3.6-16,11.8-17.7c8.1-1.7,16,3.6,17.7,11.8
		l15.3,77.5l15.3-77.5c1.6-8.1,9.4-13.5,17.7-11.8c8.1,1.6,13.4,9.5,11.8,17.7L274.3,362h44.1C323.4,337.3,336.1,317.4,347.4,304.1
		L347.4,304.1z"/>
	<path class="st0" d="M316,407v-15H196v15c0,16.5,13.5,30,30,30h60C302.5,437,316,423.5,316,407z"/>
</g>
</svg>
