<?xml version="1.0" encoding="utf-8"?>
<!-- Generator: Adobe Illustrator 24.0.1, SVG Export Plug-In . SVG Version: 6.00 Build 0)  -->
<svg version="1.1" id="Capa_1" xmlns="http://www.w3.org/2000/svg" xmlns:xlink="http://www.w3.org/1999/xlink" x="0px" y="0px"
	 viewBox="0 0 409.6 409.6" style="enable-background:new 0 0 409.6 409.6;" xml:space="preserve">
<style type="text/css">
	.st0{fill:#123868;}
</style>
<g>
	<g>
		<path class="st0" d="M399.6,180.7l-27.9-27.9c-6.6-6.6-12.1-19.7-12.1-29.1V84.1c0-18.8-15.4-34.1-34.1-34.2H286
			c-9.4,0-22.5-5.4-29.1-12.1L228.9,10c-13.3-13.3-35-13.3-48.3,0l-27.9,28C146.1,44.5,133,50,123.6,50H84.1
			C65.3,50,50,65.3,50,84.1v39.5c0,9.4-5.4,22.5-12.1,29.1L10,180.7c-13.3,13.3-13.3,35,0,48.3l27.9,27.9
			C44.5,263.5,50,276.6,50,286v39.5c0,18.8,15.4,34.1,34.1,34.1h39.5c9.4,0,22.5,5.4,29.1,12.1l27.9,27.9c13.3,13.3,35,13.3,48.3,0
			l27.9-27.9c6.6-6.6,19.7-12.1,29.1-12.1h39.5c18.8,0,34.1-15.4,34.1-34.1V286c0-9.4,5.4-22.5,12.1-29.1l27.9-27.9
			C412.9,215.7,412.9,193.9,399.6,180.7z M177.7,281.6l-75.3-75.3l24.1-24.1l51.2,51.2L283.1,128l24.1,24.1L177.7,281.6z"/>
	</g>
</g>
</svg>
