<svg id="Layer_1" data-name="Layer 1" xmlns="http://www.w3.org/2000/svg" viewBox="0 0 512 512"><defs><style>.cls-1{fill:#fff;}.cls-2{fill:#3a3a4b;}</style></defs><title>play</title><rect class="cls-1" x="90" y="106" width="337" height="304"/><path class="cls-2" d="M256,0C114.8,0,0,114.8,0,256S114.8,512,256,512,512,397.2,512,256,397.2,0,256,0ZM357.8,265,208.5,361a11.14,11.14,0,0,1-5.8,1.7,10.24,10.24,0,0,1-5.1-1.3A10.89,10.89,0,0,1,192,352V160a10.71,10.71,0,0,1,16.5-9l149.3,96a10.72,10.72,0,0,1,0,18Z"/></svg>