<?xml version="1.0" encoding="utf-8"?>
<!-- Generator: Adobe Illustrator 21.0.0, SVG Export Plug-In . SVG Version: 6.00 Build 0)  -->
<svg version="1.1" id="Слой_1" xmlns="http://www.w3.org/2000/svg" xmlns:xlink="http://www.w3.org/1999/xlink" x="0px" y="0px"
	 viewBox="0 0 256.2 45.3" style="enable-background:new 0 0 256.2 45.3;" xml:space="preserve">
<style type="text/css">
	.st0{fill:#FFFFFF;}
</style>
<path class="st0" d="M253.1,3.8c-18.7,7.5-38,11.8-58.5,11.8c-19.9,0-39.8-3.7-58.5-11.8c-3.2-1.1-5.4-2.6-8-3.8
	c-2.5,1.2-4.8,2.7-8,3.8c-18.7,8.1-38.6,11.8-58.5,11.8c-20.5,0-39.8-4.4-58.5-11.8C2.1,3.4,0,3.4,0,5.6v39.7h5V8.1
	C23.6,15,42.3,18.7,62.2,18.7c20.5,0,40.5-3.7,59.7-11.8c1.8-0.6,4.2-1.8,6.1-2.4c1.9,0.6,4.3,1.8,6.1,2.4
	c19.3,8.1,39.2,11.8,59.7,11.8c19.9,0,38.6-3.7,57.3-10.6v37.2h5V5.6C256.2,3.4,254,3.4,253.1,3.8z"/>
</svg>
