<?xml version="1.0" encoding="utf-8"?>
<!-- Generator: Adobe Illustrator 24.0.1, SVG Export Plug-In . SVG Version: 6.00 Build 0)  -->
<svg version="1.1" id="Layer_1" xmlns="http://www.w3.org/2000/svg" xmlns:xlink="http://www.w3.org/1999/xlink" x="0px" y="0px"
	 viewBox="0 0 512 512" style="enable-background:new 0 0 512 512;" xml:space="preserve">
<style type="text/css">
	.st0{fill:#FFFFFF;}
</style>
<path class="st0" d="M456.8,208.9H264c-30.4,0-55.2,24.7-55.2,55.2v104.8l-50,35.7c-3.9,2.8-6.3,7.4-6.3,12.2
	c0,4.8,2.3,9.4,6.3,12.2l50.6,36.1c3.9,26.6,26.9,47,54.6,47h192.8c30.4,0,55.2-24.7,55.2-55.2V264
	C512,233.6,487.3,208.9,456.8,208.9z M392,419.6c-3.5,0-6.3-1.1-7.1-4.2l-6.1-21.4H342l-6.1,21.4c-0.8,3.1-3.5,4.2-7.1,4.2
	c-5.6,0-13.2-3.5-13.2-8.7c0-0.3,0.2-1,0.3-1.6l31-101.1c1.4-4.8,7.4-7.1,13.3-7.1c6.1,0,12.1,2.3,13.5,7.1l31,101.1
	c0.2,0.6,0.3,1.1,0.3,1.6C405.2,415.9,397.6,419.6,392,419.6z"/>
<path class="st0" d="M346.4,377.7h28l-14-49.3L346.4,377.7z"/>
<path class="st0" d="M178.9,264c0-20.1,7-38.7,18.8-53.3c-17.1,0-33-5.4-46.1-14.5c-13.1,9.1-29,14.5-46.1,14.5
	c-4.7,0-8.5-3.8-8.5-8.5s3.8-8.5,8.5-8.5c12,0,23.2-3.3,32.8-9.1c-11.6-12.5-19.3-28.6-21.2-46.5h-11.7c-4.7,0-8.5-3.8-8.5-8.5
	s3.8-8.5,8.5-8.5h37.6v-20.5c0-4.7,3.8-8.5,8.5-8.5s8.5,3.8,8.5,8.5v20.5h37.6c4.7,0,8.5,3.8,8.5,8.5s-3.8,8.5-8.5,8.5H186
	c-1.9,17.9-9.6,34-21.2,46.5c9.6,5.8,20.8,9.1,32.8,9.1c4.5,0,8.1,3.5,8.4,7.8c15.2-14.2,35.6-22.8,58-22.8h39.1v-35.6l50-35.7
	c3.9-2.8,6.3-7.4,6.3-12.2c0-4.8-2.3-9.4-6.3-12.2L302.5,47c-4-26.6-26.9-47-54.6-47H55.2C24.7,0,0,24.7,0,55.2V248
	c0,30.4,24.7,55.2,55.2,55.2h123.7V264z"/>
<path class="st0" d="M151.6,174.2c9.3-9.6,15.5-22.1,17.4-35.9h-34.8C136,152.1,142.3,164.6,151.6,174.2z"/>
</svg>
